# xmcd CD database file
#
# Track frame offsets:
#	150
#	12086
#	27378
#	39557
#	53887
#	75733
#	88795
#	106934
#	122520
#	139042
#	151538
#	163976
#	178071
#	208831
#
# Disc length: 3032 seconds
#
# Revision: 0
# Processed by: cddbd v1.5.2PL0 Copyright (c) Steve Scherf et al.
# Submitted via: CDex 1.51
#
DISCID=b10bd60e
DTITLE=Taj Mahal - Phantom Blues
DYEAR=1996
DGENRE=Blues
TTITLE0=Lovin My Baby_S Eyes
TTITLE1=Cheatin On You
TTITLE2=The Hustle Is On
TTITLE3=Here In The Dark
TTITLE4=Fanning The Flames
TTITLE5=nedd Your Loving
TTITLE6=Ooh Poo Pah Doo
TTITLE7=Lonely Avenue
TTITLE8=Don_T Tell Me
TTITLE9=What Am I Living For
TTITLE10=We_Re Gonna Make It
TTITLE11=Let The Four Winds Blow
TTITLE12=(you_Ve Got To) Love Her
TTITLE13=The Car Of Your Dreams
EXTD=YEAR: 1996
EXTT0=
EXTT1=
EXTT2=
EXTT3=
EXTT4=
EXTT5=
EXTT6=
EXTT7=
EXTT8=
EXTT9=
EXTT10=
EXTT11=
EXTT12=
EXTT13=
PLAYORDER=
